# xmcd CD database file
#
# Track frame offsets:
#	150
#	18030
#	56340
#	87520
#	125967
#	162322
#	186745
#	209467
#	232820
#
# Disc length: 3260 seconds
#
# Revision: 1
# Processed by: cddbd v1.4PL0 Copyright (c) Steve Scherf et al.
# Submitted via: CDex 1.50Beta5
#
DISCID=7a0cba09
DTITLE=Stan Kenton - 'Live' At Carthage College Part Two
DYEAR=1974
DGENRE=Jazz
TTITLE0=Here's That Rainy Day
TTITLE1=2002 - Zarathustrevisited
TTITLE2=Mac Arthur Park
TTITLE3=The Peanut Vendor
TTITLE4=Street of Dreams
TTITLE5=Malaguena
TTITLE6=Artistry in Rhythm
TTITLE7=Happy Birthday To You
TTITLE8=Take The 'A' Train
EXTD=YEAR: 1974
EXTT0=
EXTT1=
EXTT2=
EXTT3=
EXTT4=
EXTT5=
EXTT6=
EXTT7=
EXTT8=
PLAYORDER=
